<svg width="174" height="42" viewBox="0 0 174 42" fill="none" xmlns="http://www.w3.org/2000/svg">
<path fill-rule="evenodd" clip-rule="evenodd" d="M0.034443 39.3289L9.88964 1.65677C9.9408 1.45087 10.0584 1.26843 10.2234 1.13869C10.3885 1.00896 10.5916 0.939427 10.8001 0.941252H21.2964C21.442 0.939192 21.586 0.972453 21.7164 1.03829C21.8469 1.10412 21.9601 1.20063 22.0466 1.31985C22.1367 1.43571 22.1985 1.57168 22.227 1.71659C22.2554 1.86151 22.2497 2.01123 22.2103 2.15346L14.5785 31.1665C14.5408 31.3093 14.5359 31.4589 14.5641 31.6039C14.5924 31.7489 14.6531 31.8853 14.7415 32.0026C14.8299 32.1198 14.9436 32.2148 15.0738 32.28C15.2041 32.3452 15.3473 32.379 15.4924 32.3787H35.7655C35.9106 32.3783 36.0538 32.412 36.1839 32.4773C36.3141 32.5425 36.4277 32.6375 36.5158 32.7549C36.604 32.8722 36.6643 33.0088 36.6921 33.1538C36.7199 33.2988 36.7144 33.4484 36.676 33.5909L35.0255 39.843C34.9698 40.0453 34.85 40.2232 34.6846 40.3488C34.5193 40.4745 34.3178 40.5409 34.1116 40.5377H0.94835C0.803024 40.5404 0.659151 40.5078 0.528674 40.4426C0.398197 40.3773 0.28488 40.2813 0.198128 40.1626C0.108064 40.0467 0.0462681 39.9107 0.0178137 39.7658C-0.0106407 39.6209 -0.00494161 39.4712 0.034443 39.3289Z" fill="white"/>
<path fill-rule="evenodd" clip-rule="evenodd" d="M50.5586 0.941258H81.3041C81.4776 0.93895 81.6492 0.978313 81.8051 1.05616C81.9609 1.134 82.0965 1.24814 82.2009 1.38932C82.3089 1.5284 82.3832 1.6915 82.4175 1.86534C82.4519 2.03918 82.4455 2.21883 82.3987 2.38965L82.1839 3.17464C80.7084 4.85949 79.4312 6.7141 78.3782 8.70077C78.3152 8.82361 78.2201 8.92628 78.1033 8.9974C77.9865 9.06852 77.8527 9.10531 77.7166 9.10368H60.2399C59.989 9.10106 59.7446 9.18414 59.5455 9.33965C59.3465 9.49517 59.2043 9.71415 59.1418 9.9616L57.8051 15.1265C57.7613 15.2975 57.7566 15.4764 57.7913 15.6495C57.8259 15.8226 57.8991 15.9853 58.0051 16.1252C58.1111 16.265 58.2472 16.3783 58.4029 16.4562C58.5585 16.5342 58.7296 16.5748 58.9031 16.5749H74.5521C74.7255 16.5749 74.8966 16.6154 75.0521 16.6934C75.2077 16.7714 75.3437 16.8847 75.4494 17.0246C75.5552 17.1646 75.628 17.3274 75.6622 17.5006C75.6964 17.6737 75.6911 17.8526 75.6467 18.0233L74.1565 23.7613C74.0947 24.0085 73.9532 24.2274 73.7547 24.3829C73.5562 24.5385 73.3123 24.6217 73.0619 24.6192H56.2125C55.9626 24.6166 55.719 24.6993 55.5205 24.8542C55.3221 25.009 55.1804 25.2271 55.1179 25.4737L53.6447 31.0311C53.5992 31.202 53.5929 31.3813 53.6263 31.555C53.6598 31.7288 53.732 31.8924 53.8376 32.0332C53.9431 32.1739 54.079 32.288 54.2348 32.3666C54.3906 32.4452 54.5621 32.4862 54.736 32.4864H75.7047C75.879 32.4866 76.0509 32.5277 76.2071 32.6065C76.3633 32.6853 76.4996 32.7996 76.6054 32.9407C76.7113 33.0817 76.7838 33.2457 76.8174 33.4199C76.8511 33.5941 76.8449 33.7739 76.7993 33.9452L75.258 39.6832C75.1943 39.9279 75.0525 40.144 74.8549 40.2975C74.6573 40.4509 74.4152 40.533 74.1667 40.5307H40.1237C39.9789 40.5309 39.8361 40.4971 39.7062 40.4321C39.5763 40.3671 39.4628 40.2725 39.3744 40.1557C39.2861 40.0388 39.2253 39.9029 39.1968 39.7584C39.1682 39.6138 39.1727 39.4645 39.2098 39.322L48.9149 2.22641C49.0091 1.85628 49.222 1.52881 49.5198 1.29598C49.8176 1.06315 50.1832 0.938307 50.5586 0.941258Z" fill="white"/>
<path fill-rule="evenodd" clip-rule="evenodd" d="M141.813 20.215L136.783 39.8673C136.735 40.061 136.625 40.2325 136.47 40.3542C136.314 40.4759 136.123 40.5406 135.927 40.5377L125.305 40.4717C125.199 40.4727 125.094 40.4483 124.998 40.4007C124.903 40.3531 124.82 40.2834 124.756 40.1973C124.69 40.1119 124.646 40.0122 124.625 39.9061C124.604 39.7999 124.608 39.6903 124.636 39.586L124.653 39.52C128.441 34.6524 130.499 28.6215 130.491 22.4102C130.49 21.3167 130.426 20.2242 130.301 19.1383C130.255 18.773 130.281 18.4022 130.379 18.0476L134.652 2.03192C134.733 1.71515 134.916 1.43536 135.172 1.23754C135.428 1.03972 135.742 0.935371 136.064 0.941278H144.248C144.512 0.939325 144.772 1.0128 144.997 1.15338C145.222 1.29396 145.405 1.49602 145.523 1.73668L156.095 22.1914C156.13 22.2595 156.185 22.3151 156.252 22.351C156.319 22.387 156.395 22.4016 156.471 22.393C156.546 22.3844 156.617 22.3529 156.675 22.3027C156.732 22.2526 156.774 22.1859 156.794 22.1115L162.448 0.941278H173.111C173.246 0.938543 173.38 0.968615 173.502 1.02901C173.623 1.08941 173.729 1.17839 173.81 1.28861C173.898 1.39819 173.958 1.52807 173.984 1.66678C174.011 1.8055 174.004 1.94879 173.963 2.08402L164.19 39.4575C164.11 39.7728 163.928 40.0518 163.674 40.25C163.42 40.4482 163.108 40.5544 162.789 40.5516H154.782C154.525 40.5557 154.273 40.4887 154.051 40.3577C153.83 40.2268 153.647 40.0368 153.523 39.8083L142.505 20.1212C142.467 20.0575 142.412 20.0064 142.346 19.9742C142.28 19.9421 142.207 19.9303 142.134 19.9402C142.062 19.9502 141.994 19.9815 141.938 20.0303C141.883 20.0791 141.843 20.1433 141.823 20.215H141.813Z" fill="white"/>
<path d="M124.864 18.6416C124.518 16.4614 123.851 14.3468 122.887 12.3687L111.701 10.5625L106.535 0.239664C104.407 -0.0798879 102.245 -0.0798879 100.117 0.239664L94.9511 10.5625L83.7625 12.3687C82.7998 14.3475 82.1331 16.4618 81.7847 18.6416L89.7745 26.7866L88.0217 38.082C89.5885 39.6511 91.3784 40.9708 93.3313 41.9965L103.326 36.8177L113.318 42C115.272 40.9743 117.063 39.6547 118.631 38.0855L116.875 26.7901L124.864 18.6416ZM108.223 29.2909L103.326 32.9171L98.426 29.2909L93.5291 25.6682L95.4012 19.7982L97.2699 13.9352H109.379L111.248 19.7982L113.12 25.6647L108.223 29.2909Z" fill="white"/>
</svg>
